HIERARCHY
ROOT Hips
{
	OFFSET 292.461487 92.071327 404.531097
	CHANNELS 6 Xposition Yposition Zposition Zrotation Yrotation Xrotation 
	JOINT LeftUpLeg
	{
		OFFSET 0.103459 1.857814 10.548504
		CHANNELS 3 Zrotation Yrotation Xrotation
		JOINT LeftLeg
		{
			OFFSET 43.500000 -0.000004 -0.000011
			CHANNELS 3 Zrotation Yrotation Xrotation
			JOINT LeftFoot
			{
				OFFSET 42.372196 -0.000004 0.000004
				CHANNELS 3 Zrotation Yrotation Xrotation
				JOINT LeftToe
				{
					OFFSET 17.300003 0.000001 -0.000008
					CHANNELS 3 Zrotation Yrotation Xrotation
					End Site
					{
						OFFSET 0.000000 0.000000 0.000000
					}
				}
			}
		}
	}
	JOINT RightUpLeg
	{
		OFFSET 0.103457 1.857841 -10.548511
		CHANNELS 3 Zrotation Yrotation Xrotation
		JOINT RightLeg
		{
			OFFSET 43.500042 -0.000038 0.000000
			CHANNELS 3 Zrotation Yrotation Xrotation
			JOINT RightFoot
			{
				OFFSET 42.372269 -0.000023 0.000011
				CHANNELS 3 Zrotation Yrotation Xrotation
				JOINT RightToe
				{
					OFFSET 17.300003 -0.000001 0.000023
					CHANNELS 3 Zrotation Yrotation Xrotation
					End Site
					{
						OFFSET 0.000000 0.000000 0.000000
					}
				}
			}
		}
	}
	JOINT Spine
	{
		OFFSET 6.901971 -2.603744 -0.000012
		CHANNELS 3 Zrotation Yrotation Xrotation
		JOINT Spine1
		{
			OFFSET 12.588097 -0.000002 0.000018
			CHANNELS 3 Zrotation Yrotation Xrotation
			JOINT Spine2
			{
				OFFSET 12.343208 0.000014 -0.000019
				CHANNELS 3 Zrotation Yrotation Xrotation
				JOINT Neck
				{
					OFFSET 25.832897 0.000008 0.000016
					CHANNELS 3 Zrotation Yrotation Xrotation
					JOINT Head
					{
						OFFSET 11.766600 -0.000006 0.000008
						CHANNELS 3 Zrotation Yrotation Xrotation
						End Site
						{
							OFFSET 0.000000 0.000000 0.000000
						}
					}
				}
				JOINT LeftShoulder
				{
					OFFSET 19.745909 -1.480356 6.000120
					CHANNELS 3 Zrotation Yrotation Xrotation
					JOINT LeftArm
					{
						OFFSET 11.284115 -0.000000 -0.000025
						CHANNELS 3 Zrotation Yrotation Xrotation
						JOINT LeftForeArm
						{
							OFFSET 33.000057 0.000003 0.000029
							CHANNELS 3 Zrotation Yrotation Xrotation
							JOINT LeftHand
							{
								OFFSET 25.200006 0.000029 0.000011
								CHANNELS 3 Zrotation Yrotation Xrotation
								End Site
								{
									OFFSET 0.000000 0.000000 0.000000
								}
							}
						}
					}
				}
				JOINT RightShoulder
				{
					OFFSET 19.746088 -1.480379 -6.000049
					CHANNELS 3 Zrotation Yrotation Xrotation
					JOINT RightArm
					{
						OFFSET 11.284159 -0.000019 -0.000011
						CHANNELS 3 Zrotation Yrotation Xrotation
						JOINT RightForeArm
						{
							OFFSET 33.000076 -0.000001 0.000001
							CHANNELS 3 Zrotation Yrotation Xrotation
							JOINT RightHand
							{
								OFFSET 25.199781 0.000139 0.000430
								CHANNELS 3 Zrotation Yrotation Xrotation
								End Site
								{
									OFFSET 0.000000 0.000000 0.000000
								}
							}
						}
					}
				}
			}
		}
	}
}
MOTION
Frames: 12
Frame Time: 0.033333
-1.468583 91.558022 -389.952393 85.371655 0.359363 12.276100 176.419661 -10.013307 176.990979 -61.952343 -1.107665 6.696812 61.573903 -11.186129 -14.592059 21.454557 0.003092 0.000002 175.553074 0.043702 -178.072485 -19.181514 2.589601 2.639802 82.229679 -2.099910 -0.923005 21.454558 -0.003109 -0.000017 7.300665 2.478726 -0.417203 4.576765 4.971795 -0.737501 4.257364 4.967386 -0.767585 11.496531 7.112252 -1.517017 -17.722782 -12.465451 3.469615 -164.350211 -82.802165 -17.412440 -4.657618 38.443293 71.917794 -78.556225 -9.155345 2.444719 -53.341421 -22.558540 52.004463 173.032502 74.581868 -5.725768 8.587990 -23.319640 -61.677332 -97.244238 3.015495 -2.881933 -54.962136 26.977185 -55.709499 
-2.912636 91.513443 -390.101013 85.066933 0.550768 12.558012 173.089465 -10.182801 177.544224 -65.622163 -1.208156 6.132507 66.023839 -9.051840 -11.999440 21.454551 0.003091 -0.000002 176.860591 -0.149900 -178.266025 -19.146965 2.696863 2.944693 83.150784 -2.329818 -1.072210 21.454557 -0.003109 -0.000017 7.449036 2.229974 -0.239764 4.881367 4.467927 -0.386185 4.562222 4.465652 -0.413213 11.884206 6.635309 -1.670591 -17.554817 -11.384249 2.831135 -164.784502 -82.513658 -16.974944 -5.054137 37.660222 71.377034 -78.946168 -9.047634 2.453936 -54.040395 -22.928131 52.290572 171.130991 74.345243 -7.679332 8.190374 -23.208891 -62.825391 -96.404671 3.197432 -2.857036 -56.145927 28.225577 -56.633251 
-4.319982 91.460907 -390.127899 84.989922 0.919585 12.625811 170.071943 -9.840500 177.768391 -66.791108 -1.580260 4.307108 69.370092 -6.804161 -10.656967 21.454553 0.003094 -0.000003 177.755646 -0.055405 -178.207258 -19.538448 2.650365 2.982301 84.221034 -2.358226 -1.184280 21.454557 -0.003107 -0.000017 7.555445 1.917917 -0.057793 5.100358 3.836434 -0.031557 4.781490 3.836310 -0.054756 12.174991 5.846506 -1.800150 -17.087185 -10.140201 2.124963 -164.459125 -82.239111 -17.306125 -4.786490 36.875785 70.598816 -79.621161 -8.990523 2.478998 -54.474034 -22.193252 52.339490 169.201421 74.472510 -9.649586 7.912115 -23.581652 -64.116236 -95.394985 3.428706 -2.827970 -56.686489 29.216373 -57.012224 
-5.675335 91.313583 -390.059113 85.009511 1.208903 12.663622 167.186078 -9.414702 178.108152 -65.979395 -2.290301 3.005190 72.938402 -4.765006 -8.500697 21.454550 0.003090 0.000002 178.278565 0.125396 -177.687084 -20.447510 2.559720 2.708539 85.513784 -2.166189 -1.291113 21.454558 -0.003108 -0.000017 7.648197 1.612182 0.111522 5.289776 3.217545 0.296293 4.971132 3.219413 0.276843 12.295747 5.064557 -1.950460 -16.301607 -8.966458 1.420767 -163.108797 -81.986094 -18.675300 -4.199679 36.081799 69.457457 -80.521592 -8.841606 2.507480 -54.300636 -20.796056 52.624425 168.538183 74.689314 -10.320205 7.159354 -23.911545 -65.600566 -94.281028 3.740142 -2.799841 -56.924508 30.000609 -57.389107 
-7.021721 91.144989 -389.930786 85.041394 1.413908 12.580851 164.804186 -9.012697 178.143546 -62.860109 -3.026052 1.857548 76.391486 -3.108393 -6.670619 21.454545 0.003095 0.000000 178.809243 0.315904 -177.201335 -21.272165 2.533540 2.361459 86.772670 -1.931194 -1.424432 21.454562 -0.003108 -0.000017 7.747547 1.332050 0.292368 5.491209 2.648746 0.647432 5.172752 2.652744 0.631418 12.519154 4.404985 -2.096824 -15.676228 -8.158197 0.884330 -161.401864 -81.726704 -20.407014 -3.574378 35.475483 68.049605 -81.415425 -8.620004 2.530741 -54.422759 -18.852415 52.921081 168.178204 74.952447 -10.678602 6.503904 -24.346573 -67.220502 -93.253536 4.364724 -2.797505 -56.948785 30.256379 -57.634120 
-8.393466 90.812172 -389.756989 85.072438 1.178796 12.606140 162.771823 -9.002595 178.375171 -57.878675 -3.718122 0.923874 79.765531 -2.016136 -5.904206 21.454550 0.003095 -0.000000 179.228235 0.096604 -176.906653 -22.206938 2.579116 2.183890 88.179149 -1.798056 -1.500686 21.454558 -0.003107 -0.000017 7.842507 1.151284 0.459564 5.683008 2.278676 0.975011 5.364674 2.284659 0.961229 12.367846 3.763524 -2.309293 -14.923053 -7.287735 0.276734 -159.189880 -81.458544 -22.652039 -3.030176 34.970357 66.772216 -82.200582 -8.418361 2.550776 -54.041488 -17.377145 53.160278 167.138513 75.039511 -11.737886 6.402555 -24.634300 -68.497235 -92.440907 4.854795 -2.795415 -56.955578 30.580017 -57.798987 
-9.829013 90.575233 -389.577789 85.237366 1.016844 12.632550 161.327538 -8.863908 178.241300 -50.869603 -4.201355 -0.536567 81.492797 -0.731598 -5.272136 21.454553 0.003093 -0.000001 179.906732 -0.144196 -177.084703 -22.443119 2.604917 2.298238 89.332645 -1.851219 -1.477306 21.454557 -0.003107 -0.000017 7.930732 0.939358 0.624128 5.859810 1.846006 1.294949 5.541612 1.853927 1.283783 11.629432 3.314897 -2.643911 -14.147838 -6.169219 -0.501405 -158.090916 -81.221099 -23.769871 -2.493785 34.542312 65.680882 -82.886859 -8.229616 2.567506 -53.812246 -16.265042 53.009385 166.223609 74.937304 -12.676868 6.576718 -24.988898 -69.375693 -91.605111 5.295816 -2.788888 -57.281955 30.757964 -58.020155 
-11.334630 90.385773 -389.373505 85.480617 0.846639 12.841270 160.406337 -8.559403 177.700458 -42.387123 -4.013856 -1.831614 81.511778 0.312280 -4.680624 21.454555 0.003092 0.000001 -179.168320 -0.423996 -177.451457 -22.143825 2.683512 2.626885 90.314949 -2.045827 -1.406339 21.454553 -0.003108 -0.000017 8.003970 0.737780 0.710001 6.004729 1.437838 1.457260 5.686639 1.446749 1.448554 10.395827 2.873244 -3.074856 -13.880200 -4.675434 -1.454008 -157.277004 -80.799055 -24.602679 -1.744736 34.021736 64.944895 -83.610128 -8.046899 2.586323 -53.699374 -15.234547 52.924773 165.149685 74.845705 -13.777914 6.854716 -25.432098 -70.046698 -90.748721 5.748195 -2.782263 -57.585065 30.877127 -58.060740 
-12.898720 90.146172 -389.125702 85.717037 0.466677 13.129989 160.093118 -8.363299 177.323759 -32.771968 -3.401321 -2.276892 80.516579 0.638030 -4.408181 21.454555 0.003092 -0.000000 -178.141456 -0.937806 -178.044672 -21.642376 2.789899 3.127553 91.246239 -2.350733 -1.289988 21.454558 -0.003108 -0.000017 8.069816 0.565833 0.774942 6.134568 1.089909 1.578719 5.816552 1.099561 1.572117 9.008991 3.173930 -3.626477 -14.377468 -3.721942 -2.264122 -156.422615 -80.765095 -25.470127 -0.688530 33.809737 64.417666 -84.246852 -7.827731 2.598873 -53.322194 -14.518919 52.910743 165.127582 74.597687 -13.810750 6.854695 -25.704662 -70.549133 -90.062116 6.117885 -2.777462 -57.790517 31.237734 -58.361979 
-14.517300 89.988297 -388.812988 85.950404 0.120219 13.241950 160.313610 -8.179704 177.399738 -22.881257 -3.014111 -2.245801 77.912665 0.681803 -3.778235 21.454550 0.003089 -0.000001 -176.825729 -1.377397 -178.813437 -20.608706 2.905943 3.612581 91.886842 -2.654384 -1.195212 21.454555 -0.003108 -0.000017 8.127197 0.408794 0.836623 6.247396 0.771957 1.694030 5.929407 0.782309 1.689343 7.664647 3.583543 -4.066357 -15.115297 -3.198545 -2.794391 -156.324233 -80.882294 -25.567609 0.642613 33.867411 63.928863 -84.839255 -7.565363 2.606503 -52.795399 -13.796998 52.940427 165.256277 74.465174 -13.684701 6.694339 -25.973430 -70.845283 -89.558581 6.366094 -2.772356 -57.984679 31.408697 -58.516409 
-16.215481 89.801361 -388.432800 85.975061 -0.150932 13.332460 160.926934 -7.897293 178.869568 -13.825320 -2.955648 -2.467468 75.053506 0.556614 -4.480545 21.454558 0.003099 0.000001 -175.212179 -1.646697 -178.857915 -19.581744 2.965688 3.631381 92.568277 -2.659400 -1.199240 21.454558 -0.003109 -0.000017 8.217682 0.278544 0.851057 6.426388 0.509515 1.716218 6.108427 0.520004 1.713114 6.506411 3.361105 -4.290365 -15.650477 -2.492839 -3.237990 -155.309404 -80.951108 -26.595420 1.838928 34.024184 63.476254 -85.289057 -7.379539 2.613253 -52.077047 -13.052399 52.929332 164.736417 74.676951 -14.207245 6.492507 -26.458466 -71.111927 -89.202243 6.557141 -2.771698 -58.240538 31.337113 -58.707846 
-18.051451 89.416771 -387.945312 85.760907 -0.724275 13.187519 160.513639 -7.999803 -178.968851 -9.323334 -2.824215 -2.606342 74.047283 -0.201229 -7.223407 21.454553 0.003095 0.000001 -173.680359 -2.138398 -178.948853 -19.240947 3.041429 3.494228 93.476944 -2.554652 -1.189056 21.454558 -0.003109 -0.000017 8.319898 0.213973 0.919685 6.630024 0.375032 1.850071 6.312098 0.386331 1.847778 5.612520 2.968632 -4.496674 -16.307854 -1.807435 -3.694409 -154.115828 -80.858832 -27.807930 2.582471 33.993705 62.558003 -85.999533 -7.168009 2.629698 -51.078050 -11.002380 52.998235 164.356877 74.717106 -14.593293 6.337656 -26.642422 -71.412148 -88.942102 6.708608 -2.771855 -58.523561 31.502752 -58.987187 
